<?xml version="1.0" encoding="utf-8"?>
<!-- Generator: Adobe Illustrator 26.5.0, SVG Export Plug-In . SVG Version: 6.00 Build 0)  -->
<svg version="1.1" id="Ebene_1" xmlns="http://www.w3.org/2000/svg" xmlns:xlink="http://www.w3.org/1999/xlink" x="0px" y="0px"
	 viewBox="0 0 200 200" style="enable-background:new 0 0 200 200;" xml:space="preserve">
<style type="text/css">
	.st0{fill:#009FE3;}
</style>
<path class="st0" d="M196.5,120.1c-1.2-2.2-3.7-3.3-6.1-2.7l-1,0.1c-6.8,0.6-13.8,1.3-19.5-4.6c-0.1-0.1-0.3-0.2-0.5-0.2
	c-2.8-0.5-2.6-2.6-2.5-4c0.9-13-2.1-25.9-8.6-37.2c-1.7-3-3-5.4-0.7-9.2c1.5-2.9,3.6-5.6,6.2-7.6c3.1-2.2,6.4-3.9,9.9-5.2
	c2.4-0.8,3.8-3.3,3.2-5.7c-0.4-2.4-2.2-4.1-4.5-4.3c-2.2-0.2-4.4,1-5.4,3l-0.6,0.9c-3.8,5.6-7.7,11.5-15.9,12c0,0-0.1,0-0.2,0.1
	c-2.1,1.7-3.7,0.7-5.1-0.6c-9.3-8.7-20.9-14.5-33.4-16.8c-0.4-0.1-0.9-0.2-1.3-0.2c-2.7-0.4-6-0.9-6.4-5.5c0,0-0.1-0.1-0.2-0.2
	l-0.2-0.2c-1.4-1.8-2-4-1.9-6.3c0.1-4.6,1-9.3,2.5-13.7c0.4-1.3,0.4-2.6-0.3-3.9c-0.6-1.2-1.6-2.1-2.9-2.5c-0.1-0.1-0.3-0.1-0.4-0.1
	c-2.9-0.7-5.8,1.1-6.4,4c-0.2,1.4,0,2.8,0.7,4.1c3.1,7.4,2.6,15.6-1.4,22.6c-0.7,1.2-1.7,1.3-2.3,1.3l-0.3,0
	C78.6,39,67,44,57.3,51.9l-0.8,0.7c-2.4,2-5,4.2-8.9,1.5c0,0-0.1,0-0.2,0c-2.4,0-4.6-1-6.2-2.5c-3.5-2.9-6.5-6.4-8.9-10.3
	c-1.1-2.1-3.5-3.1-5.7-2.4c-2.2,0.5-3.7,2.3-3.9,4.4c-0.4,2.4,1,4.6,3.2,5.4c7.1,3,14.3,6,17.1,14.6c0.8,1.4,0.7,3.3-0.3,4.7
	c-7.3,11.2-11,24.2-10.9,37.6l0,0.7c0.1,1.1,0.2,2.4,0.2,3.7c0.1,1.2,0.1,2.3-0.8,2.6c-1.1,0.4-2,1.2-2.9,2.1
	c-1.2,1.1-2.4,2.3-4.1,2.7c-4.8,1.3-9.6,1.6-14.5,1c-2.6-0.6-5.1,0.6-6.2,2.8c-1,2-0.6,4.6,1.1,6.2c1.9,1.6,4.6,1.8,6.7,0.3
	c6.4-3.5,12.8-7,20.8-4.1c1.6,0.3,3,1.6,3.6,3.3c4.6,13,12.8,24.1,24,32.2c0.4,0.3,0.8,0.5,1.2,0.8c2.3,1.6,4.9,3.4,4,7.9
	c-0.1,2.4-0.5,4.9-1.4,7.2c-2,4-4.5,7.5-7.4,10.5c-1,1-1.6,2.3-1.6,3.6c0,1.4,0.5,2.7,1.4,3.7c0.7,0.7,1.5,1.2,2.5,1.5
	c1.4,0.3,2.8,0,4-0.7c1.2-0.8,2-2,2.4-3.4c0.1-0.3,0.1-0.6,0.2-0.9l0-0.4c1-7,2.1-14.3,9.3-18.6c0.1-0.1,0.3-0.2,0.4-0.4
	c1-2.2,2.9-1.6,3.8-1.3c13.7,4.7,28.8,4.6,42.5-0.1c0.3-0.2,0.8-0.3,1.2-0.3c0.3,0,0.5,0,0.8,0.1c0.7,0.2,1.4,0.7,1.7,1.4
	c0.5,0.8,1.2,1.4,2,1.8c2.2,1.3,3.8,3.3,4.7,5.7c1.7,4.1,2.8,8.5,3.2,12.9c0.1,2.2,1.8,4.1,4,4.4c2.8,0.6,5.6-1.2,6.2-4
	c0.3-1.6-0.1-3.2-1.2-4.5c-5.5-6.1-10-11.9-9-20.6c0.2-1.9,0.4-3.4,2.4-4.7c11.6-7.6,20.4-18.5,25.4-31.4c1.3-3.3,2.4-5.6,6.6-6.4
	c3.5-0.9,7.2-0.9,10.7,0c3.2,0.8,6.1,2.1,8.9,3.7c2.4,1.8,5.7,1.3,7.4-1C197.2,124,197.3,121.9,196.5,120.1z M97.5,92.1
	c0.6,0,1.2,0.1,1.7,0h0.3c0.5,0.1,1.1,0,1.7,0c1.6-0.1,3.7-0.2,5.1,1.8c0.5,0.7,1.2,1.4,1.8,2.1c1.6,1.7,3.4,3.6,3.6,6.4
	c0.1,3.8-1.6,7.8-4.5,10.7c-2.2,2.2-4.9,3.4-7.4,3.4h-0.4c-3.5-0.3-6.8-1.8-9.3-4.2c-2.2-2.9-3.2-6.4-2.9-9.9
	c-0.1-2.7,1.8-4.6,3.4-6.3c0.7-0.7,1.4-1.4,1.9-2.1C93.8,91.9,95.9,92,97.5,92.1z M83.6,48.7c0.5-0.2,1.1-0.4,1.7-0.6
	c2-0.7,4.4-1.6,5.9-0.4c1.5,1.2,1,3.4,0.5,5.3c-0.2,0.7-0.3,1.4-0.4,2.1c-0.6,6.8-1.2,13.6-1.9,20.4c-0.1,0.6-0.2,1.3-0.3,2
	l-0.4,2.6l-1.3-0.9c-8.8-6.2-17.2-11.8-25.7-17.1l0.6-0.8v0l-0.7-0.8C67.9,55,75.5,50.9,83.6,48.7z M42.1,107.9
	c-0.9-0.7-0.9-2-0.8-3.2c0-0.2,0-0.3,0-0.5c0-0.2,0-0.3,0-0.5v-0.6c0.3-9.8,3-19.4,7.9-27.8c0.5-0.9,1-1.8,2-1.9
	c0.9-0.1,1.7,0.5,2.3,1.2c4.4,4.5,8.8,8.8,13.2,13.2l5.4,5.3c1.4,1.4,1.9,2.6,1.6,3.8c-0.3,1.2-1.4,2.1-3.3,2.8
	c-2.4,0.8-4.9,1.6-7.4,2.4c-5.8,1.9-11.9,3.8-17.7,5.9c-0.6,0.2-1.3,0.4-2,0.4C42.9,108.3,42.4,108.1,42.1,107.9z M78.4,124.7
	c-2.3,6.5-4.6,13-7,19.6l-3.3,9.3l-1-0.7c-10-6.7-17.6-16.1-21.9-27.4c-0.2-0.6-0.4-1.4,0-2c0.4-0.7,1.2-0.8,1.8-0.9
	c4-0.4,7.9-0.9,11.8-1.3c5.2-0.6,10.5-1.2,15.7-1.7c1.8-0.2,3,0.2,3.8,1.1C79,121.6,79.1,122.9,78.4,124.7z M117.3,159.3
	c-0.3,0.8-1.1,1-1.8,1.2l-0.4,0.1c-5.2,1.5-10.4,2.2-15.7,2.2c-5.7,0-11.3-0.8-16.9-2.5l-1.2-0.4l5-8.4c3.5-6,7-12,10.5-17.9
	c0.8-1.4,1.9-2,3.1-2.1c1.2,0,2.3,0.8,3.1,2.2c4,7.1,8.7,15.5,13.8,23.6C117.1,157.7,117.6,158.5,117.3,159.3z M119.9,75.2
	c-0.8,0.5-1.6,1.1-2.3,1.6c-0.6,0.4-1.2,0.9-1.9,1.3c-1.2,0.8-2.2,1.2-3.1,1.2c-0.4,0-0.8-0.1-1.2-0.3c-1.2-0.5-1.8-1.8-2-3.9
	c-0.3-3-0.6-6.1-0.8-9.1c-0.3-3.5-0.7-7-1-10.5l0-0.4c-0.2-1.7-0.3-3.3-0.6-4.9c-0.1-0.8-0.2-1.7,0.4-2.4c0.6-0.6,1.6-0.6,2.4-0.4
	c10.6,1.9,20.4,6.8,28.4,14l1,0.8L119.9,75.2z M153.7,125.5c-4.2,11-11.6,20.4-21.3,27l-1.1,0.7l-3-8.5c-2.3-6.6-4.6-13-6.8-19.5
	c-0.6-1.6-0.4-2.9,0.3-3.9c0.8-1,2-1.4,3.8-1.2c3.3,0.3,6.6,0.6,9.9,0.8c5.4,0.5,10.8,1,16.3,1.4c0.8,0,1.6,0.2,2,0.9
	C154.2,124.1,153.9,125,153.7,125.5z M157.6,107.4l-1,0l-0.3,1c-9.6-3-19.6-6-31.6-9.1l-1.8-0.4l1.3-1.2
	c8.2-7.6,15.9-15.6,23.3-23.3l0.9-0.9l0.7,1.1C155.2,84.4,158.1,95.8,157.6,107.4z"/>
</svg>
