<?xml version="1.0" encoding="utf-8"?><!-- Uploaded to: SVG Repo, www.svgrepo.com, Generator: SVG Repo Mixer Tools -->
<svg version="1.1" id="Uploaded to svgrepo.com" xmlns="http://www.w3.org/2000/svg" xmlns:xlink="http://www.w3.org/1999/xlink" 
	 width="800px" height="800px" viewBox="0 0 32 32" xml:space="preserve">
<style type="text/css">
	.linesandangles_een{fill:#111918;}
	.st0{fill:#111918;}
</style>
<path class="linesandangles_een" d="M30,10v4h-3.764L22,16.118V18h-4v-2.586L12.586,10h-2.35L6,12.118V14H2v-4h3.764L10,7.882V6h4
	v2.586L19.414,14h2.35L26,11.882V10H30z M26,22.47l-4-1V20h-4v1.022l-4-0.015V20h-4v0.469l-4-1V18H2v4h4v-0.47l4,1V24h4v-1.022
	l4,0.015V24h4v-0.469l4,1V26h4v-4h-4V22.47z"/>
</svg>